<svg width="56" height="57" viewBox="0 0 56 57" fill="none" xmlns="http://www.w3.org/2000/svg">
<circle opacity="0.4" cx="27.6976" cy="28.4759" r="27.6976" fill="#1F232F"/>
<g opacity="0.8">
<path d="M19.6142 25.0146H19.0371C17.9491 25.0146 17.405 25.0146 17.067 25.3527C16.729 25.6907 16.729 26.2347 16.729 27.3228V37.1323C16.729 38.2204 16.729 38.7644 17.067 39.1025C17.405 39.4405 17.9491 39.4405 19.0371 39.4405H19.6142C20.7022 39.4405 21.2463 39.4405 21.5843 39.1025C21.9223 38.7644 21.9223 38.2204 21.9223 37.1323V27.3228C21.9223 26.2347 21.9223 25.6907 21.5843 25.3527C21.2463 25.0146 20.7022 25.0146 19.6142 25.0146Z" fill="white"/>
<path d="M21.9223 20.1113C21.9223 21.5454 20.7597 22.7079 19.3257 22.7079C17.8916 22.7079 16.729 21.5454 16.729 20.1113C16.729 18.6772 17.8916 17.5146 19.3257 17.5146C20.7597 17.5146 21.9223 18.6772 21.9223 20.1113Z" fill="white"/>
<path d="M27.4904 25.0146H26.5371C25.4491 25.0146 24.905 25.0146 24.567 25.3527C24.229 25.6907 24.229 26.2347 24.229 27.3228V37.1323C24.229 38.2204 24.229 38.7644 24.567 39.1025C24.905 39.4405 25.4491 39.4405 26.5371 39.4405H27.1142C28.2022 39.4405 28.7463 39.4405 29.0843 39.1025C29.4223 38.7644 29.4223 38.2204 29.4223 37.1323L29.4224 33.0932C29.4224 31.1812 30.0318 29.631 31.8319 29.631C32.7318 29.631 33.4615 30.4061 33.4615 31.3621V36.5554C33.4615 37.6435 33.4615 38.1875 33.7996 38.5255C34.1375 38.8636 34.6816 38.8636 35.7697 38.8636H36.3452C37.433 38.8636 37.9769 38.8636 38.315 38.5257C38.653 38.1877 38.6531 37.6438 38.6533 36.556L38.6549 30.2082C38.6549 27.3401 35.9271 25.0149 33.227 25.0149C31.6899 25.0149 30.3187 25.7684 29.4224 26.9466C29.4223 26.2194 29.4223 25.8559 29.2644 25.5859C29.1644 25.4149 29.022 25.2726 28.851 25.1726C28.5811 25.0146 28.2176 25.0146 27.4904 25.0146Z" fill="white"/>
</g>
</svg>
